<svg xmlns="http://www.w3.org/2000/svg" width="172" height="172" viewBox="0 0 172 172" xml:space="preserve"><rect style="stroke:none;stroke-width:1;stroke-dasharray:none;stroke-linecap:butt;stroke-dashoffset:0;stroke-linejoin:miter;stroke-miterlimit:4;fill:#fff;fill-rule:nonzero;opacity:1" vector-effect="non-scaling-stroke" x="-86" y="-86" rx="0" ry="0" width="172" height="172" transform="translate(86 86)"/><g transform="matrix(0 0)"/><path style="stroke:none;stroke-width:1;stroke-dasharray:none;stroke-linecap:butt;stroke-dashoffset:0;stroke-linejoin:miter;stroke-miterlimit:4;fill:#2b8aaf;fill-rule:nonzero;opacity:1" vector-effect="non-scaling-stroke" transform="matrix(.65 0 0 .65 1.07 55.735)" d="M13.59 74.49h48V12h-48Zm42.67-17.12c-5.854.104-10.52 4.926-10.43 10.78h-5.3c0-9 7.06-16.27 15.73-16.27Zm0-10.91c-11.56 0-21 9.73-21 21.69H30C30 53.17 41.77 41 56.26 41Zm0-11.24c-17.55 0-31.83 14.78-31.83 32.93h-5.3c0-21.18 16.65-38.41 37.13-38.41Z"/><path style="stroke:none;stroke-width:1;stroke-dasharray:none;stroke-linecap:butt;stroke-dashoffset:0;stroke-linejoin:miter;stroke-miterlimit:4;fill:#db7a27;fill-rule:nonzero;opacity:1" vector-effect="non-scaling-stroke" transform="matrix(.65 0 0 .65 1.07 55.729)" d="M146.21 79.31h3.09V95h-3.09Z"/><path style="stroke:none;stroke-width:1;stroke-dasharray:none;stroke-linecap:butt;stroke-dashoffset:0;stroke-linejoin:miter;stroke-miterlimit:4;fill:#db7a27;fill-rule:nonzero;opacity:1" vector-effect="non-scaling-stroke" transform="matrix(.65 0 0 .65 1.063 55.729)" d="M168.89 79.31V95h-2.79l-7.84-10.5V95h-3.09V79.31H158l7.84 10.52V79.31Z"/><path style="stroke:none;stroke-width:1;stroke-dasharray:none;stroke-linecap:butt;stroke-dashoffset:0;stroke-linejoin:miter;stroke-miterlimit:4;fill:#db7a27;fill-rule:nonzero;opacity:1" vector-effect="non-scaling-stroke" transform="matrix(.65 0 0 .65 1.064 55.735)" d="m173.79 93.12 1.61-2.3a8.2 8.2 0 0 0 5.06 1.7c2.09 0 3.41-.78 3.41-2s-1.1-1.81-3.56-2.1c-4.28-.52-6.14-1.95-6.14-4.75s2.56-4.67 6.25-4.67c2.105 0 4.157.658 5.87 1.88l-1.53 2.2a7.24 7.24 0 0 0-4.25-1.41c-1.95 0-3.29.8-3.29 2s1 1.74 3.45 2.06c4.34.58 6.29 2 6.29 4.79 0 2.93-2.6 4.88-6.5 4.88a10.9 10.9 0 0 1-6.67-2.28Z"/><path style="stroke:none;stroke-width:1;stroke-dasharray:none;stroke-linecap:butt;stroke-dashoffset:0;stroke-linejoin:miter;stroke-miterlimit:4;fill:#db7a27;fill-rule:nonzero;opacity:1" vector-effect="non-scaling-stroke" transform="matrix(.65 0 0 .65 1.07 55.729)" d="M191.74 79.31h3.1V95h-3.1Z"/><path style="stroke:none;stroke-width:1;stroke-dasharray:none;stroke-linecap:butt;stroke-dashoffset:0;stroke-linejoin:miter;stroke-miterlimit:4;fill:#db7a27;fill-rule:nonzero;opacity:1" vector-effect="non-scaling-stroke" transform="matrix(.65 0 0 .65 1.07 55.735)" d="M214.54 85.91v6.79a8.72 8.72 0 0 1-6.54 2.62c-4.95 0-8.2-3.23-8.2-8.17 0-4.94 3.43-8.15 8.4-8.15a7.9 7.9 0 0 1 5.91 2.47l-1.92 1.92a5.77 5.77 0 0 0-4-1.63 5 5 0 0 0-5.29 5.42c0 3.29 2 5.42 5.13 5.42a5.68 5.68 0 0 0 3.79-1.26v-2.85h-4.33v-2.58Z"/><path style="stroke:none;stroke-width:1;stroke-dasharray:none;stroke-linecap:butt;stroke-dashoffset:0;stroke-linejoin:miter;stroke-miterlimit:4;fill:#db7a27;fill-rule:nonzero;opacity:1" vector-effect="non-scaling-stroke" transform="matrix(.65 0 0 .65 1.07 55.729)" d="M233.39 79.31V95h-3.09v-6.56h-7.48V95h-3.09V79.31h3.09v6.29h7.48v-6.29Zm17.43 2.77h-4.95V95h-3.11V82.08h-4.95v-2.77h13Z"/><path style="stroke:none;stroke-width:1;stroke-dasharray:none;stroke-linecap:butt;stroke-dashoffset:0;stroke-linejoin:miter;stroke-miterlimit:4;fill:#d17732;fill-rule:nonzero;opacity:1" vector-effect="non-scaling-stroke" transform="matrix(.65 0 0 .65 1.07 55.735)" d="M74.46 31.77c0 5.47-8 5.47-8 0s8-5.46 8 0m-7.4 36.37h6.79V39.66h-6.79Z"/><path style="stroke:none;stroke-width:1;stroke-dasharray:none;stroke-linecap:butt;stroke-dashoffset:0;stroke-linejoin:miter;stroke-miterlimit:4;fill:#d17732;fill-rule:nonzero;opacity:1" vector-effect="non-scaling-stroke" transform="matrix(.65 0 0 .65 1.07 55.729)" d="M97.38 68.14V53.29c0-4.31-2.28-7.59-6.62-7.59-4.17 0-7 3.62-7 7.94v14.5H77V39.71h6.06l.45 3.86c2.78-2.82 5.56-4.26 9-4.26 6.45 0 11.62 5 11.62 13.93v14.9Z"/><path style="stroke:none;stroke-width:1;stroke-dasharray:none;stroke-linecap:butt;stroke-dashoffset:0;stroke-linejoin:miter;stroke-miterlimit:4;fill:#d17732;fill-rule:nonzero;opacity:1" vector-effect="non-scaling-stroke" transform="matrix(.65 0 0 .65 1.07 55.735)" d="M125.13 47.31a9.07 9.07 0 0 0-6.79-2.53c-3.22 0-5 1-5 2.82 0 1.82 1.61 2.88 5.12 3.11 5.17.34 11.73 1.55 11.73 9.09 0 5-4 9.32-11.79 9.32-4.34 0-8.68-.75-12.68-5.06l3.34-5c1.94 2.24 6.39 3.91 9.45 4 2.56.06 4.95-1.32 4.95-3.4s-1.56-2.76-5.45-3c-5.17-.4-11.35-2.36-11.35-8.8 0-6.44 6.57-8.86 11.57-8.86 4.29 0 7.51.86 10.68 3.74ZM131.75 80V39.77h6.34l.45 3.92a10.74 10.74 0 0 1 8.89-4.55c8.46 0 14.08 6.5 14.08 14.85s-5.06 14.84-13.85 14.84c-2.9 0-7.18-.92-9.12-4V80Zm23-26c0-4.44-2.89-8.06-7.79-8.06s-7.78 3.62-7.78 8.06a7.79 7.79 0 1 0 15.57 0m16.38-22.23c0 5.47-8 5.47-8 0s8-5.46 8 0m-7.4 36.37h6.79V39.66h-6.79Zm16.41-28.37.5 3.28c2.11-3.51 5-4 7.73-4a10.21 10.21 0 0 1 7.07 2.71l-3.06 6.1a6.65 6.65 0 0 0-4.9-1.84c-3.56 0-6.84 1.95-6.84 7.19v15h-6.79V39.77ZM201 56.46c.44 3.51 3.39 6 8.17 6 2.51 0 5.79-1 7.35-2.64l4.33 4.43c-2.89 3.1-7.62 4.6-11.79 4.6-9.45 0-15.07-6-15.07-15.13 0-8.64 5.67-14.85 14.57-14.85 9.18 0 14.91 5.87 13.85 17.55Zm14.9-5.81c-.44-3.68-3.22-5.53-7.12-5.53-3.67 0-6.67 1.85-7.67 5.53Z"/></svg>