<svg xmlns="http://www.w3.org/2000/svg" width="172" height="172" viewBox="0 0 172 172" xml:space="preserve"><rect style="stroke:none;stroke-width:1;stroke-dasharray:none;stroke-linecap:butt;stroke-dashoffset:0;stroke-linejoin:miter;stroke-miterlimit:4;fill:#fff;fill-rule:nonzero;opacity:1" vector-effect="non-scaling-stroke" x="-86" y="-86" rx="0" ry="0" width="172" height="172" transform="translate(86 86)"/><g transform="matrix(0 0)"/><path style="stroke:none;stroke-width:1;stroke-dasharray:none;stroke-linecap:butt;stroke-dashoffset:0;stroke-linejoin:miter;stroke-miterlimit:4;fill:#ebddd5;fill-rule:nonzero;opacity:1" vector-effect="non-scaling-stroke" transform="matrix(.47 0 0 .47 9.61 54.36)" d="M95.45 61.67c-7.55-7.55-9.87-13.16-10.52-15.19a36 36 0 0 0 3.61.2c5.52 0 9.12-1.53 10.55-4.52 2.58-5.4-2.15-14.1-16.92-23.86a19.78 19.78 0 0 0-11.74-15C62.87-.15 56 .79 51.49 3.55A67.65 67.65 0 0 0 37.63.27c-9.12-1-15.24.74-17.2 4.86C19.06 8 19.15 13 27.4 20.44a73.32 73.32 0 0 0 8.53 6.5c.06 1.08.16 2.65.33 4.53H32a7.37 7.37 0 0 0 4.54 2.38c.92 8.2 3.12 19.69 8.27 21.4a14 14 0 0 0 2.66.61c.19 1.49 0 4.86-4.36 9.19a103.24 103.24 0 0 1-9.71 8.45C29 77 25.59 79.71 22.68 85.53a33 33 0 0 0-3.51 14 17.3 17.3 0 0 0-2.86-1.83A9.65 9.65 0 0 0 12 96.61l2.1-13.31h1.05a9 9 0 0 0 6.94-2.81c5.57-6 2.28-19.68 2.13-20.26l-.24-1-14.55-2.3-.53.83c-.32.5-7.8 12.38-4.45 19.88 1.16 2.6 3.41 4.33 6.68 5.18L8.68 97.51a7.39 7.39 0 0 0-1.37 1c-2.86 2.86-3 5.42-2.61 7.07A7 7 0 0 0 6.75 109l-.63 3.78a10.06 10.06 0 0 0-2.44.11 8.89 8.89 0 0 0-3.63 1.44v.3c2.18.49 4.39.82 6.59 1.23 2.2.41 4.41.7 6.64.94v-.3a9.08 9.08 0 0 0-3-2.51c-.4-.21-.815-.394-1.24-.55l.43-2.44c.794.426 1.62.79 2.47 1.09 2.42 3 18.86 22.56 34.24 22.56h.18a31.29 31.29 0 0 0 20.31-7.72 42 42 0 0 0 9.57 1.15c13.21 0 24.82-6.67 31.73-18.77 8.7-15.23 4.72-30.35-12.53-47.6Z"/><path style="stroke:none;stroke-width:1;stroke-dasharray:none;stroke-linecap:butt;stroke-dashoffset:0;stroke-linejoin:miter;stroke-miterlimit:4;fill:#fff;fill-rule:nonzero;opacity:1" vector-effect="non-scaling-stroke" transform="matrix(.47 0 0 .47 9.61 54.36)" d="M10.39 58.64 23 60.71s5.83 23.59-9.91 21-2.69-23.07-2.69-23.07Z"/><path style="stroke:none;stroke-width:1;stroke-dasharray:none;stroke-linecap:butt;stroke-dashoffset:0;stroke-linejoin:miter;stroke-miterlimit:4;fill:#1d4354;fill-rule:nonzero;opacity:1" vector-effect="non-scaling-stroke" transform="matrix(.47 0 0 .47 9.61 54.36)" d="M56 70.44c-1.92 2.28-3.66 4.38-6 7-3.84 4.3-9.53 10.59-10 12-1.23 3.69-1.13 9.87 3 14 3.45 3.45 4 10.13 4 13 2.43-.81 7.81-3.49 9.35-8.1a53.73 53.73 0 0 0 1.46-7.19C59.1 93 60.92 81.77 68.28 78.41a11.31 11.31 0 0 1 9.66-.32c.18.08.37.17.55.27a57.37 57.37 0 0 0-3.64-6l-.49-.73C74 71.17 73.29 70 73 69.44c-2.14 1.18-5 2-11 2h-1c-1-.17-3.49 0-5-1Z"/><path style="stroke:none;stroke-width:1;stroke-dasharray:none;stroke-linecap:butt;stroke-dashoffset:0;stroke-linejoin:miter;stroke-miterlimit:4;fill:#bf9d8a;fill-rule:nonzero;opacity:1" vector-effect="non-scaling-stroke" transform="matrix(.47 0 0 .47 9.61 54.355)" d="M97.26 40.85c-3.45 7.24-24.08 3.13-44.68-6.7S17.85 12.34 21.3 5.1C24.75-2.14 44.94 0 65.54 9.87s35.18 23.74 31.72 30.98Z"/><path style="stroke:none;stroke-width:1;stroke-dasharray:none;stroke-linecap:butt;stroke-dashoffset:0;stroke-linejoin:miter;stroke-miterlimit:4;fill:#f08142;fill-rule:nonzero;opacity:1" vector-effect="non-scaling-stroke" transform="matrix(.47 0 0 .47 9.61 54.36)" d="M46.17 117.44s1.12-7.82-3.35-12.29c-4.47-4.47-5.88-11.4-4.47-15.64 1.12-3.35 17.87-20.11 20.11-24.57 2.24-4.46-2.23-13.4-2.23-13.4a11.26 11.26 0 0 1-7.8 2.85s2.22 5-4.49 11.67C33.83 76.17 28.3 77.23 23.83 86.17A30.05 30.05 0 0 0 20.65 103c1.48 1.27 4.42 3.69 9.88 7.78 10.47 7.78 15.64 6.66 15.64 6.66ZM6.14 69.94c.3-.17 1.07 1.64 3 2 1.64.31 2-.82 4-1 2.69-.25 3.36 1.76 7 2 2 .13 1.71-.42 2 0 .92 1.32-2.78 10.35-11 8-7-2-5.68-10.62-5-11Z"/><path style="stroke:none;stroke-width:1;stroke-dasharray:none;stroke-linecap:butt;stroke-dashoffset:0;stroke-linejoin:miter;stroke-miterlimit:4;fill:#bf9d8a;fill-rule:nonzero;opacity:1" vector-effect="non-scaling-stroke" transform="matrix(.47 0 0 .47 9.61 54.355)" d="M49.54 6.9C53 3.2 60.55.53 69.65 4.67a18.54 18.54 0 0 1 11.17 17.87s-1.94 14.11-23.46 3.35C44 19.19 46 10.65 49.54 6.9Z"/><path style="stroke:none;stroke-width:1;stroke-dasharray:none;stroke-linecap:butt;stroke-dashoffset:0;stroke-linejoin:miter;stroke-miterlimit:4;fill:#f08142;fill-rule:nonzero;opacity:1" vector-effect="non-scaling-stroke" transform="matrix(.47 0 0 .47 9.61 54.355)" d="M64.48 39.46c-.18 11.41 6.88 24.34 11.35 31S87 86.14 80.3 104c-3.25 8.67-7.76 16-13.57 21.21 15.62 3.91 31.58-1.34 40.37-16.74 8.94-15.64 3.39-30.12-12.29-45.8-10-10-11.17-17.87-11.17-17.87L65 39.44h-.48Z"/><path style="stroke:none;stroke-width:1;stroke-dasharray:none;stroke-linecap:butt;stroke-dashoffset:0;stroke-linejoin:miter;stroke-miterlimit:4;fill:#000;fill-rule:nonzero;opacity:1" vector-effect="non-scaling-stroke" transform="matrix(.47 0 0 .47 9.61 54.36)" d="M95.45 61.67c-7.55-7.55-9.87-13.16-10.52-15.19a36 36 0 0 0 3.61.2c5.52 0 9.12-1.53 10.55-4.52 2.58-5.4-2.15-14.1-16.92-23.86a19.78 19.78 0 0 0-11.74-15C62.87-.15 56 .79 51.49 3.55A67.65 67.65 0 0 0 37.63.27c-9.12-1-15.24.74-17.2 4.86C19.06 8 19.15 13 27.4 20.44a73.32 73.32 0 0 0 8.53 6.5c.06 1.08.16 2.65.33 4.53H32a7.37 7.37 0 0 0 4.54 2.38c.92 8.2 3.12 19.69 8.27 21.4a14 14 0 0 0 2.66.61c.19 1.49 0 4.86-4.36 9.19a103.24 103.24 0 0 1-9.71 8.45C29 77 25.59 79.71 22.68 85.53a33 33 0 0 0-3.51 14 17.3 17.3 0 0 0-2.86-1.83A9.65 9.65 0 0 0 12 96.61l2.1-13.31h1.05a9 9 0 0 0 6.94-2.81c5.57-6 2.28-19.68 2.13-20.26l-.24-1-14.55-2.3-.53.83c-.32.5-7.8 12.38-4.45 19.88 1.16 2.6 3.41 4.33 6.68 5.18L8.68 97.51a7.39 7.39 0 0 0-1.37 1c-2.86 2.86-3 5.42-2.61 7.07A7 7 0 0 0 6.75 109l-.63 3.78a10.06 10.06 0 0 0-2.44.11 8.89 8.89 0 0 0-3.63 1.44v.3c2.18.49 4.39.82 6.59 1.23 2.2.41 4.41.7 6.64.94v-.3a9.08 9.08 0 0 0-3-2.51c-.4-.21-.815-.394-1.24-.55l.43-2.44c.794.426 1.62.79 2.47 1.09 2.42 3 18.86 22.56 34.24 22.56h.18a31.29 31.29 0 0 0 20.31-7.72 42 42 0 0 0 9.57 1.15c13.21 0 24.82-6.67 31.73-18.77 8.7-15.23 4.72-30.35-12.53-47.6ZM7.19 76.4c-2.06-4.6 1.62-12.59 3.73-16.21l10.6 1.74c.84 4.1 1.78 12.85-1.64 16.55-1.5 1.62-3.72 2.17-6.79 1.67s-5-1.73-5.9-3.75Zm62-70.4A17 17 0 0 1 79.5 22.31a7.42 7.42 0 0 1-3.77 5.14c-3.75 1.95-9.81.94-17.53-2.92-5.56-2.78-8.84-6.16-9.49-9.77a8.13 8.13 0 0 1 2.1-6.85C54.15 4.33 61.14 2.35 69.2 6ZM29.41 18.2c-5.36-4.84-7.59-9-6.27-11.79C24.2 4.19 27.75 3 32.93 3a41 41 0 0 1 4.39.25A70.59 70.59 0 0 1 48.89 5.6l-.27.26a11.06 11.06 0 0 0-2.86 9.43c.58 3.2 3 7.86 11.1 11.93 5.61 2.8 10.42 4.21 14.39 4.21a12.53 12.53 0 0 0 5.91-1.34 10.44 10.44 0 0 0 5.31-7.42v-.32c10 7.08 16.08 13.95 13.89 18.53-2.78 5.82-21.93 2.5-42.68-7.41-10.12-4.84-18.74-10.26-24.28-15.25Zm16.31 34.17c-3.58-1.2-5.91-13.58-6.65-23.44a143.51 143.51 0 0 0 13.35 7.23c3.41 1.63 6.81 3.08 10.14 4.37.2 10 5.45 20.6 9 26.75-1.85 1-5.93 2.83-9.89 2.17a12.59 12.59 0 0 1-3.63-1A19 19 0 0 0 60 65.63c2.5-5-1.74-13.76-2.23-14.75l-.93-1.83-1.47 1.44a9.67 9.67 0 0 1-9.65 1.88Zm27.45 17.48c.38.6.72 1.12 1 1.53l.5.75a55.5 55.5 0 0 1 3.63 6c-2.17-1.14-5.67-2-10.21 0-7.37 3.37-9.18 14.56-10.51 22.74a52.18 52.18 0 0 1-1.46 7.19c-1.54 4.61-5.69 6.63-8.12 7.44 0-2.87-.47-7.93-3.91-11.38C40 100 38.75 93.7 40 90c.47-1.41 5.72-7.3 9.56-11.6 2.42-2.71 4.77-5.35 6.65-7.6a14.14 14.14 0 0 0 5 1.6c.74.124 1.49.184 2.24.18a21.25 21.25 0 0 0 9.71-2.74Zm-18.28-2.19c-2 2.5-4.92 5.75-7.6 8.75C41.4 83 37.76 87.16 37.12 89.06c-1.5 4.49-.31 12 4.83 17.17 2.88 2.88 3.1 7.52 3 9.75-1.93-.17-6.4-1.21-13.35-6.42-4.92-3.69-7.79-6-9.36-7.34a29.52 29.52 0 0 1 3.1-15.36c2.61-5.22 5.51-7.53 9.9-11a104.84 104.84 0 0 0 9.92-8.7c4.83-4.83 5.43-9 5.24-11.3a12.83 12.83 0 0 0 5.4-1.94c1.23 3 2.75 7.86 1.48 10.4l-2.42 3.37Zm-8.54 63.94h-.15c-13.31 0-28.49-17.35-31.58-21.07l-3.62-5.1v1c0 .719.136 1.431.4 2.1-2.08-1-3.41-2.28-3.73-3.63-.39-1.64.77-3.22 1.81-4.26a3.56 3.56 0 0 1 2.61-1.08c3.06 0 6.4 3.27 6.44 3.31.04.04 2.41 2.39 11.33 9.08 7.78 5.83 12.84 6.93 15.25 7h1.49c.07 0 .47-.08 1.08-.23 2.6-.67 9-2.93 11.26-9.72a54.52 54.52 0 0 0 1.57-7.66c1.22-7.51 2.89-17.79 8.8-20.49a8.36 8.36 0 0 1 7.69-.09 8.17 8.17 0 0 1 3.84 4.68c.85 4.73.47 10.54-2.35 18.08-8.63 23-22.23 28-32.12 28.07Zm59-23.82c-7.52 13.15-21.11 19.32-36 16.61 4.81-4.94 8.85-11.58 11.93-19.81 2.61-7 3.26-12.64 2.81-17.38h.09L84 85.7a7 7 0 0 0-.18-.79c-1.12-6.23-4.12-10.73-6.63-14.46l-.5-.74c-2.5-3.75-10.31-16.34-11-28a93.67 93.67 0 0 0 16 4.36l.37.06c.65 2.52 3.06 9.39 11.37 17.7 16.36 16.36 20.08 29.93 12 44Z"/><text xml:space="preserve" font-family="EksellDisplayWeb-Medium, Eksell Display Web" font-size="22.78" font-weight="500" style="stroke:none;stroke-width:1;stroke-dasharray:none;stroke-linecap:butt;stroke-dashoffset:0;stroke-linejoin:miter;stroke-miterlimit:4;fill:#cdab95;fill-rule:nonzero;opacity:1;white-space:pre" transform="matrix(.47 0 0 .47 115.901 105.937)"><tspan x="-95.21" y="7.16">LocalFoodBuzz.com</tspan></text><path style="stroke:none;stroke-width:1;stroke-dasharray:none;stroke-linecap:butt;stroke-dashoffset:0;stroke-linejoin:miter;stroke-miterlimit:4;fill:#1e1f22;fill-rule:nonzero;opacity:1" vector-effect="non-scaling-stroke" transform="matrix(.47 0 0 .47 9.61 54.36)" d="M191.1 90.89h-59.75v-.21a13 13 0 0 0 5.74-5 13.86 13.86 0 0 0 2.09-7.53V30.5a13.85 13.85 0 0 0-2.09-7.5 12.9 12.9 0 0 0-5.74-5v-.21h32V18a13.11 13.11 0 0 0-5.65 5 13.93 13.93 0 0 0-2.08 7.52V87h13.16a18.11 18.11 0 0 0 11.07-3.39 27.72 27.72 0 0 0 7.58-8.57 82.09 82.09 0 0 0 5.69-12.59h.21Z"/><path style="stroke:none;stroke-width:1;stroke-dasharray:none;stroke-linecap:butt;stroke-dashoffset:0;stroke-linejoin:miter;stroke-miterlimit:4;fill:#1e1f22;fill-rule:nonzero;opacity:1" vector-effect="non-scaling-stroke" transform="matrix(.47 0 0 .47 9.616 54.36)" d="M257.22 40.12q-3.14-9.19-7.78-13.84a15.88 15.88 0 0 0-11.75-4.66h-12.75V49.2h4.49c3.49 0 6.15-.78 8-2.35 1.85-1.57 3.71-4.37 5.59-8.41h.2V66H243q-2.52-7-5.44-10c-2-2-4.66-3-8.15-3h-4.49v25.14a13.91 13.91 0 0 0 2.08 7.52 13.17 13.17 0 0 0 5.64 5v.21h-31.83v-.21a13.06 13.06 0 0 0 5.75-5 13.91 13.91 0 0 0 2.09-7.52V30.5a13.94 13.94 0 0 0-2.09-7.5 13 13 0 0 0-5.75-5v-.21H256l1.46 22.36Z"/><path style="stroke:none;stroke-width:1;stroke-dasharray:none;stroke-linecap:butt;stroke-dashoffset:0;stroke-linejoin:miter;stroke-miterlimit:4;fill:#1e1f22;fill-rule:nonzero;opacity:1" vector-effect="non-scaling-stroke" transform="matrix(.47 0 0 .47 9.61 54.355)" d="M325 70.61q0 9.52-6.21 14.89-6.21 5.37-16.56 5.38h-37.3v-.21a12.92 12.92 0 0 0 5.75-5 13.94 13.94 0 0 0 2.09-7.52V30.5a13.94 13.94 0 0 0-2.08-7.5 12.92 12.92 0 0 0-5.75-5v-.21h37.92q8.16 0 13.22 4.44a14.62 14.62 0 0 1 5.07 11.54 15.73 15.73 0 0 1-3.82 10.34q-3.81 4.59-11.12 6.69 9.19 2 14 7.21a18 18 0 0 1 4.79 12.6ZM289.08 49.3h5.64a13 13 0 0 0 8.3-2.5c2.13-1.68 3.19-4.84 3.19-9.51a17.68 17.68 0 0 0-2-8.56 14.08 14.08 0 0 0-12.54-7.53h-2.61Zm19.74 23.41a22.45 22.45 0 0 0-2.14-9.82 17.33 17.33 0 0 0-6.17-7.16 16.46 16.46 0 0 0-9.34-2.67h-2.09v34.17H296a13.55 13.55 0 0 0 9.3-3.14q3.53-3.09 3.52-11.38Z"/></svg>