<svg xmlns="http://www.w3.org/2000/svg" width="172" height="172" viewBox="0 0 172 172" xml:space="preserve"><rect style="stroke:none;stroke-width:1;stroke-dasharray:none;stroke-linecap:butt;stroke-dashoffset:0;stroke-linejoin:miter;stroke-miterlimit:4;fill:#fff;fill-rule:nonzero;opacity:1" vector-effect="non-scaling-stroke" x="-86" y="-86" rx="0" ry="0" width="172" height="172" transform="translate(86 86)"/><g transform="matrix(0 0)"/><path style="stroke:none;stroke-width:1;stroke-dasharray:none;stroke-linecap:butt;stroke-dashoffset:0;stroke-linejoin:miter;stroke-miterlimit:4;fill:#005f86;fill-rule:evenodd;opacity:1" vector-effect="non-scaling-stroke" transform="matrix(.63 0 0 .63 13.505 68.71)" d="M110.096 47.456c2.165-1.332 4.209-3.634 5.652-6.178l-6.614-3.755a14.4 14.4 0 0 1-3.127 3.634c-1.563 1.212-3.126 1.696-5.291 1.696-1.804 0-4.089-.363-5.893-2.18-1.683-1.696-2.766-4.361-2.886-6.784h23.931v-.969c0-3.513-.36-9.69-4.69-14.173-1.924-2.059-5.411-4.36-10.703-4.36-4.81 0-8.418 1.817-11.184 4.603C85.804 22.624 84 27.59 84 32.8c0 4.966 1.804 9.69 4.93 12.84 3.248 3.27 6.855 4.36 11.305 4.36 3.608 0 7.215-.727 9.861-2.544Zm-4.45-24.469c1.203 1.212 2.045 2.786 2.406 4.603H92.418c.481-1.695 1.323-3.27 2.405-4.36 1.083-1.09 2.886-2.18 5.532-2.18s4.209.968 5.291 1.937Z"/><path style="stroke:none;stroke-width:1;stroke-dasharray:none;stroke-linecap:butt;stroke-dashoffset:0;stroke-linejoin:miter;stroke-miterlimit:4;fill:#005f86;fill-rule:nonzero;opacity:1" vector-effect="non-scaling-stroke" transform="matrix(.63 0 0 .63 13.505 68.71)" d="M118.032 15.356h7.817v3.15c3.367-3.756 7.095-3.998 9.02-3.998 6.133 0 8.778 3.15 9.861 4.603 1.323 1.817 2.044 4.119 2.044 9.327v20.593h-7.817V30.255c0-8.6-3.126-8.842-6.133-8.842-3.487 0-7.095.484-7.095 11.386v16.11h-7.817V15.357h.12Zm81.175-.121V48.91h-7.816V15.235h7.816Zm-37.761.121V3h-7.817v12.356h-5.893v7.147h5.893V48.91h7.817V22.503h5.892v-7.147h-5.892Zm28.502 0c-1.684-.727-3.247-.97-4.81-.97-1.804 0-3.247.243-4.811 1.09-1.082.607-2.405 1.818-3.247 2.787v-3.028h-7.816v33.554h7.816V31.588c0-2.18 0-5.451 2.165-7.753 1.563-1.575 3.127-1.817 4.81-1.817.602 0 1.564 0 2.646.485l3.247-7.147Zm43.051-.121h-9.139l-11.786 16.837L223.86 48.91h9.139l-11.785-16.838 11.785-16.837Z"/><ellipse style="stroke:none;stroke-width:1;stroke-dasharray:none;stroke-linecap:butt;stroke-dashoffset:0;stroke-linejoin:miter;stroke-miterlimit:4;fill:#ff6900;fill-rule:nonzero;opacity:1" vector-effect="non-scaling-stroke" rx="5.045" ry="5.043" transform="matrix(.63 0 0 .63 136.393 71.885)"/><path style="stroke:none;stroke-width:1;stroke-dasharray:none;stroke-linecap:butt;stroke-dashoffset:0;stroke-linejoin:miter;stroke-miterlimit:4;fill:#ff6900;fill-rule:nonzero;opacity:1" vector-effect="non-scaling-stroke" transform="matrix(.63 0 0 .63 13.505 68.71)" d="M82.155 18.493c-4.685-4.563-9.249-5.404-12.251-5.404-4.805 0-7.807 1.921-9.61 3.843-1.8 1.8-3.722 5.163-3.722 9.966 0 5.044 1.921 8.526 3.963 10.448 2.282 2.161 5.525 3.482 9.249 3.482 4.083 0 9.008-1.681 12.49-5.524v11.288c-2.522 1.561-6.485 3.362-13.211 3.362-7.207 0-12.371-2.041-16.575-6.364-3.123-3.242-6.246-8.406-6.246-16.331 0-8.166 3.363-13.69 6.606-16.812 3.363-3.362 8.888-6.364 17.416-6.364 3.363 0 7.206.48 11.89 3.122v11.288ZM209.23 15.01h-9.128l11.77 16.692-11.77 16.691h9.128L221 31.702 209.23 15.01Z"/><path style="stroke:none;stroke-width:1;stroke-dasharray:none;stroke-linecap:butt;stroke-dashoffset:0;stroke-linejoin:miter;stroke-miterlimit:4;fill:#ff6900;fill-rule:evenodd;opacity:1" vector-effect="non-scaling-stroke" transform="matrix(.63 0 0 .63 13.505 68.71)" d="M41.317 10.567c4.084 4.083 6.847 9.847 6.847 16.692 0 5.884-2.162 11.888-6.847 16.451-3.242 3.122-7.206 5.284-12.25 6.124V58h-9.97v-8.166c-5.645-.96-9.608-3.482-12.25-6.004C2.641 39.867 0 33.863 0 27.38c0-6.365 2.883-12.849 6.846-16.812 3.003-2.882 8.528-6.484 17.416-6.484 6.846 0 12.611 2.161 17.055 6.484Zm-12.25 29.54c2.041-.72 3.603-1.8 4.804-3.002 1.681-1.68 3.843-4.803 3.843-9.846 0-4.563-1.801-7.926-3.843-9.967-2.162-2.042-5.646-3.723-9.73-3.723-3.843 0-7.326 1.321-9.728 3.723-1.922 1.801-3.963 5.043-3.963 9.967 0 4.083 1.32 7.325 4.083 10.087 1.442 1.44 3.003 2.281 4.564 2.882V29.42h9.97v10.688Z"/><path style="stroke:none;stroke-width:1;stroke-dasharray:none;stroke-linecap:butt;stroke-dashoffset:0;stroke-linejoin:miter;stroke-miterlimit:4;fill:#ffa661;fill-rule:nonzero;opacity:1" vector-effect="non-scaling-stroke" transform="matrix(.63 0 0 .63 13.505 68.71)" d="M48.114 31H57c-.342-1.275-.456-2.667-.456-4.174 0-1.391.114-2.667.456-3.826h-9c.114.696.228 1.275.228 1.971.114.696.114 1.391.114 2.087 0 .696 0 1.275-.114 1.971 0 .58 0 1.275-.114 1.971Z"/></svg>